<svg width="40" height="40" viewBox="0 0 40 40" fill="none" xmlns="http://www.w3.org/2000/svg">
<rect width="40" height="40" rx="20" fill="url(#tok_paint0_linear_116_126)"/>
<path d="M9.00169 16C9.00979 14.8351 9.05658 14.1687 9.32698 13.638C9.6146 13.0735 10.0735 12.6146 10.638 12.327C11.2798 12 12.1198 12 13.8 12H26.2C27.8802 12 28.7202 12 29.362 12.327C29.9265 12.6146 30.3854 13.0735 30.673 13.638C30.9434 14.1687 30.9902 14.8351 30.9983 16H9.00169Z" fill="white"/>
<path fill-rule="evenodd" clip-rule="evenodd" d="M9 18V23.2C9 24.8802 9 25.7202 9.32698 26.362C9.6146 26.9265 10.0735 27.3854 10.638 27.673C11.2798 28 12.1198 28 13.8 28H26.2C27.8802 28 28.7202 28 29.362 27.673C29.9265 27.3854 30.3854 26.9265 30.673 26.362C31 25.7202 31 24.8802 31 23.2V18H9ZM12 23.5C12 23.0341 12 22.8011 12.0761 22.6173C12.1776 22.3723 12.3723 22.1776 12.6173 22.0761C12.8011 22 13.0341 22 13.5 22H14.5C14.9659 22 15.1989 22 15.3827 22.0761C15.6277 22.1776 15.8224 22.3723 15.9239 22.6173C16 22.8011 16 23.0341 16 23.5C16 23.9659 16 24.1989 15.9239 24.3827C15.8224 24.6277 15.6277 24.8224 15.3827 24.9239C15.1989 25 14.9659 25 14.5 25H13.5C13.0341 25 12.8011 25 12.6173 24.9239C12.3723 24.8224 12.1776 24.6277 12.0761 24.3827C12 24.1989 12 23.9659 12 23.5Z" fill="white"/>
<defs>
<linearGradient id="tok_paint0_linear_116_126" x1="20" y1="0" x2="34.443" y2="33.8347" gradientUnits="userSpaceOnUse">
<stop stop-color="#00E7FF"/>
<stop offset="1" stop-color="#007AFF"/>
</linearGradient>
</defs>
</svg>
