<svg title="CheckFilled" viewBox="0 0 24 24" fill="none" xmlns="http://www.w3.org/2000/svg">
<path fill-rule="evenodd" clip-rule="evenodd" d="M16.2032 10.1284L11.3421 14.9895C11.1874 15.1442 10.9863 15.2211 10.7842 15.2211C10.5811 15.2211 10.38 15.1442 10.2253 14.9895L7.79474 12.5589C7.48632 12.2505 7.48632 11.7505 7.79474 11.4421C8.10316 11.1337 8.60211 11.1337 8.91053 11.4421L10.7842 13.3147L15.0863 9.01158C15.3947 8.70316 15.8947 8.70316 16.2032 9.01158C16.5116 9.32 16.5116 9.82 16.2032 10.1284ZM12 2C6.48632 2 2 6.48632 2 12C2 17.5147 6.48632 22 12 22C17.5137 22 22 17.5147 22 12C22 6.48632 17.5137 2 12 2Z" fill="currentColor" />
</svg>
