<svg width="205" height="42" viewBox="0 0 205 42" fill="none" xmlns="http://www.w3.org/2000/svg">
<path fill-rule="evenodd" clip-rule="evenodd" d="M28.4644 1.64091C28.8783 1.14567 30.3807 0.456219 31.6566 0.17576C32.3628 0.0206212 33.8495 -0.00744413 34.2074 0.127718C34.6694 0.302054 34.955 1.33102 35.1479 3.51495C35.4838 7.31849 34.1655 15.8559 32.1949 22.639C30.5383 28.3415 27.9076 33.9885 25.2596 37.5267C24.4692 38.5828 22.7427 40.2512 21.9815 40.6946C20.0339 41.8291 18.1121 41.6527 16.7915 40.2183C15.619 38.9448 14.6907 36.2506 14.4614 33.4559C14.4285 33.0539 14.372 32.6692 14.3359 32.6011C14.2969 32.5272 13.9943 32.9987 13.5883 33.766C12.7846 35.2849 11.2612 37.5983 10.4047 38.6004C9.68298 39.4449 8.54911 40.4264 7.8738 40.7913C5.83894 41.8906 3.73967 41.2443 2.27252 39.0668C1.41756 37.798 0.839636 36.1362 0.439692 33.797C-0.858801 26.2024 0.713586 16.6768 5.22518 4.80586C6.26127 2.07962 6.42825 1.83249 7.60501 1.28473C8.51966 0.858879 9.56449 0.683275 10.8895 0.732585C12.1582 0.779847 12.5109 0.893376 13.5374 1.58536C14.1352 1.98841 14.1352 1.98841 13.3735 2.49573C12.4812 3.08998 11.9954 3.72895 11.0986 5.488C8.65131 10.2882 6.10252 18.7501 5.27544 24.8205C5.09825 26.121 5.06075 26.8765 5.05711 29.2169C5.0524 32.2182 5.12937 32.9375 5.61197 34.3968C5.80055 34.9668 6.37475 35.7947 6.58159 35.7947C6.76772 35.7947 7.45138 35.0863 7.92269 34.4052C9.73236 31.7892 11.4637 27.7557 14.1426 19.9141C14.6183 18.522 14.6242 18.4898 14.6242 17.2813C14.6242 13.767 15.1608 9.77694 15.9211 7.63744C16.5359 5.90743 17.2941 4.67547 18.3157 3.7462C19.9818 2.23077 21.5901 2.12426 22.3467 3.47929C22.6131 3.9563 22.6245 4.02939 22.6131 5.19566C22.6047 6.06948 22.5271 6.79928 22.339 7.77806C21.8994 10.0643 21.1175 13.3042 20.3985 15.8176C19.3106 19.6211 18.7471 23.9978 18.7488 28.6322C18.75 32.0721 19.2665 35.0876 19.9751 35.7909C20.0911 35.9061 20.1521 35.9667 20.2215 35.9786C20.2985 35.9919 20.3859 35.9452 20.5702 35.8466C21.2031 35.5083 22.3507 33.9023 23.2889 32.042C24.3951 29.8487 25.907 25.7006 26.9292 22.0544C28.5681 16.208 29.1704 11.608 28.949 6.6266C28.8594 4.61018 28.8503 4.52511 28.5479 2.87988C28.3892 2.01648 28.3714 1.7521 28.4644 1.64091ZM86.3091 2.82521C86.7406 2.45714 87.293 2.17649 88.0062 1.96327C88.7794 1.73202 89.6582 1.78094 90.2864 2.09025C90.6712 2.27969 90.8113 2.42674 91.0704 2.91311C91.5116 3.74094 91.628 4.60307 91.5565 6.51122C91.4702 8.81521 91.1017 10.7027 90.196 13.4788C89.1518 16.6799 87.229 20.7602 85.3375 23.7894C84.7417 24.7437 84.6714 24.914 84.5055 25.8061C84.252 27.1694 84.0349 29.0692 84.0969 29.3816C84.1256 29.5258 84.2281 29.7146 84.3246 29.8014C84.4801 29.9411 84.5377 29.9434 84.8297 29.821C85.4997 29.5401 86.8685 28.4187 88.3029 26.9753C89.7777 25.4915 89.7777 25.4915 89.894 24.8204C90.3416 22.2355 92.2379 18.902 94.4035 16.8928C96.5494 14.9018 98.4234 14.0781 100.559 14.1873C101.786 14.25 102.339 14.4383 102.982 15.0121C103.72 15.6712 103.985 16.254 104.037 17.3325C104.102 18.7045 103.716 19.9026 102.738 21.3627C101.658 22.976 100.149 24.2543 96.1796 26.9216C95.5198 27.3649 95.2399 27.5422 95.1895 27.7702C95.1506 27.9462 95.2486 28.1525 95.4143 28.5347C95.8475 29.5342 96.593 29.9843 97.8196 29.9872C99.0009 29.99 99.8977 29.6503 101.426 28.6211C102.395 27.9677 103.607 26.9724 104.717 25.9176C105.525 25.1502 105.525 25.1502 107.003 22.2738L107.003 22.2736C108.303 19.7436 108.464 19.378 108.343 19.2395C108.108 18.9707 107.981 18.6643 107.879 18.1172C107.519 16.1838 109.804 12.5019 111.706 11.9527C112.834 11.6266 114.122 12.0477 114.717 12.9371C115.547 14.1774 115.715 15.35 115.298 16.9969C115.28 17.0707 115.267 17.1225 115.285 17.1579C115.329 17.2419 115.551 17.2328 116.301 17.2022C117.244 17.1636 117.425 17.1836 117.874 17.3756C118.475 17.632 119.149 18.3094 119.512 19.0212C120.167 20.3032 120.322 22.1758 119.871 23.341C119.752 23.6467 119.055 24.7868 118.322 25.8747C116.735 28.2272 116.302 29.0592 116.347 29.6698C116.375 30.0573 116.402 30.0967 116.663 30.1263C117.511 30.2222 118.579 29.558 120.308 27.8577C121.735 26.4554 122.813 25.1801 124.211 23.2421C125.387 21.6117 125.685 21.3722 126.536 21.3722C127.184 21.3722 127.564 21.5907 127.816 22.1074C128.059 22.6053 128.061 23.249 127.822 23.7713C127.371 24.7578 124.947 28.1058 123.376 29.9125C121.274 32.3287 118.591 34.2702 116.859 34.6273C115.924 34.82 114.699 34.7078 113.953 34.3612C112.545 33.7072 111.552 32.3691 111.305 30.7935C111.07 29.2919 111.309 28.5863 113.172 25.2702C114.424 23.0418 114.954 21.9946 114.954 21.7488C114.954 21.6059 114.807 21.5789 113.849 21.5465C113.242 21.5259 112.681 21.4892 112.604 21.465C112.505 21.4341 111.548 22.9311 109.395 26.4883C107.708 29.2753 106.159 31.8188 105.953 32.1403C104.968 33.6786 104.063 34.1511 103.067 33.6469C102.664 33.4427 102.291 32.9608 102.29 32.6439C102.29 32.5455 102.257 32.4805 102.216 32.4993C102.176 32.5182 101.59 32.8044 100.916 33.1353C99.2601 33.9472 98.2256 34.241 96.7924 34.306C95.4352 34.3675 94.7832 34.2323 93.5528 33.6337C92.4487 33.0965 91.2273 31.9089 90.6642 30.8248C90.4554 30.4228 90.2686 30.0754 90.2492 30.0528C90.2298 30.0302 89.8497 30.3625 89.4046 30.7913C88.0583 32.0881 86.6781 33.1102 85.4255 33.7378C83.5784 34.6634 82.1788 34.4772 80.9315 33.1398C80.4254 32.5971 79.7108 31.372 79.7108 31.0468C79.7108 30.8527 79.6487 30.8869 78.9866 31.4445C77.2146 32.9366 75.1938 33.8457 73.649 33.8457C72.17 33.8457 70.6929 32.8872 69.97 31.4582C69.8073 31.1366 69.6586 30.8564 69.6395 30.8355C69.6203 30.8146 69.2147 31.1655 68.738 31.6151C67.2369 33.031 65.41 34.1146 64.1228 34.3521C62.3506 34.6794 60.4112 33.7008 59.6431 32.0919C59.3574 31.4936 59.3406 31.393 59.3406 30.2888C59.3406 29.1498 59.3565 29.0637 59.951 26.9755C60.9753 23.3782 61.2636 22.1157 61.3251 20.9581C61.3707 20.1014 61.356 19.9107 61.2443 19.9114C60.975 19.9132 60.0727 20.5057 59.4278 21.104C58.7693 21.7151 56.8309 24.1863 56.5804 24.7342C56.4291 25.065 56.0978 26.3754 55.3608 29.5576C55.0815 30.7634 54.772 31.9077 54.6729 32.1006C54.1859 33.0481 52.1659 34.0677 50.7465 34.0826C49.9967 34.0905 49.6503 33.9164 49.407 33.41C49.381 33.3559 49.3576 33.3133 49.3397 33.2686C49.2236 32.9804 49.3315 32.602 50.4011 28.4551C50.924 26.4283 51.3379 24.731 51.3211 24.6834C51.3044 24.6358 50.9814 24.7971 50.6034 25.0418C50.2255 25.2865 49.4232 25.7278 48.8208 26.0225C47.7253 26.5583 47.7253 26.5583 47.4619 27.3029C46.814 29.1345 45.9454 30.566 44.7495 31.7723C43.8847 32.6448 43.4565 32.9497 42.3826 33.4579C41.2538 33.9921 40.4914 34.1665 39.2648 34.1714C37.5144 34.1784 36.5175 33.8215 35.4225 32.7962C34.0218 31.4845 33.4791 29.6811 33.4745 26.3227C33.4716 24.2472 33.9691 22.2209 34.989 20.1541C35.28 19.5645 35.7012 18.841 35.9252 18.5462C36.1491 18.2514 36.4694 17.7558 36.637 17.4447C37.3942 16.0391 39.1457 15.0347 41.3466 14.7439C42.0863 14.6463 42.2619 14.6561 42.9927 14.8367C44.3951 15.1831 45.1777 15.623 46.1924 16.6351C46.9078 17.3488 47.1724 17.6976 47.5409 18.4132C48.0388 19.3797 48.2491 20.126 48.3541 21.2991C48.3913 21.7145 48.4435 22.0544 48.4701 22.0544C48.7069 22.0544 52.0994 20.0293 52.337 19.7462C52.4095 19.6598 52.6454 18.9309 52.8613 18.1264C53.254 16.6636 53.254 16.6636 53.7186 16.3466C55.1574 15.3648 57.1209 15.3325 58.4211 16.2694C58.6713 16.4497 58.8988 16.5972 58.9266 16.5972C58.9545 16.5972 59.2136 16.4381 59.5025 16.2435C60.1688 15.7947 61.0988 15.3761 61.8759 15.175C62.7671 14.9445 63.9985 15.0231 64.6417 15.3517C65.6396 15.8614 66.3838 16.9298 66.7151 18.3285C66.8327 18.8252 66.8581 19.2927 66.8198 20.2515C66.7727 21.4309 66.7181 21.7136 66.0301 24.3444C65.6237 25.8987 65.1615 27.587 65.003 28.0962C64.6115 29.3543 64.5315 29.8503 64.7201 29.8503C65.4336 29.8503 69.2235 26.1958 69.3603 25.376C69.6052 23.9069 70.3436 21.777 71.0523 20.4952C72.8902 17.1712 75.6492 15.0107 78.5089 14.6565C79.9159 14.4822 80.9769 14.8318 81.9053 15.7757C82.4198 16.2989 82.4198 16.2989 82.7323 15.0106C83.1598 13.2483 84.789 7.21198 85.4472 4.95203C85.9317 3.28809 86.0191 3.07263 86.3091 2.82521ZM80.0059 20.9399C80.0049 19.8331 79.5524 18.3639 79.167 18.2171C79.0793 18.1838 79.0002 18.1604 78.991 18.1652C78.982 18.17 78.82 18.218 78.6311 18.2717C78.1934 18.3962 76.889 19.7015 76.2551 20.6494C75.6397 21.5697 75.0417 22.6811 74.8136 23.329C74.7112 23.6195 74.5327 24.092 74.4169 24.379C73.7714 25.9782 73.7509 28.2363 74.3752 28.9728C75.1833 29.9261 76.9047 28.884 79.487 25.878C80.5135 24.6829 80.5135 24.6829 80.6661 23.8285C80.8187 22.9742 80.8186 22.9742 80.5194 22.6772C80.1514 22.3118 80.0066 21.8219 80.0059 20.9399ZM98.004 20.6873C98.2654 20.3983 98.6101 19.9045 98.77 19.5901C98.9787 19.1797 99.0524 18.9092 99.031 18.6319C99.0174 18.4554 99.01 18.3596 98.9638 18.3342C98.909 18.304 98.7993 18.3733 98.5594 18.525C98.026 18.8623 97.5933 19.3399 97.0088 20.2369C96.5876 20.8833 95.8534 22.4216 95.9298 22.4976C95.9925 22.5597 97.5019 21.2422 98.004 20.6873ZM43.5898 22.9558C43.8377 21.7746 43.536 19.6875 43.0142 18.9744C42.8248 18.7156 42.6124 18.694 42.0866 18.8802C41.6638 19.03 40.8883 19.6304 40.724 19.9353C40.5913 20.1814 40.6676 21.5568 40.8468 22.1506C41.0901 22.9568 42.0295 23.5161 43.1404 23.5161C43.4652 23.5161 43.4746 23.5044 43.5898 22.9558ZM41.2259 27.6643C40.8223 27.5811 40.217 27.3789 39.8809 27.2151C39.5449 27.0512 39.0319 26.7012 38.7412 26.4373C38.4503 26.1735 38.1841 25.9856 38.1496 26.02C38.05 26.1188 38.078 27.6927 38.1917 28.3884C38.3127 29.1285 38.6247 29.7436 38.9707 29.924C39.5091 30.2046 40.4318 29.8552 41.1355 29.1043C41.5821 28.6279 42.0681 27.9229 41.998 27.8534C41.9771 27.8327 41.6297 27.7476 41.2259 27.6643ZM142.543 4.03182C142.822 3.82201 143.56 3.56406 144.173 3.46252C145.577 3.22991 146.74 3.67574 147.003 4.54694C147.152 5.03935 147.142 7.11423 146.986 8.14037C146.865 8.93877 146.865 8.93877 147.507 8.99987C149.888 9.22644 151.637 9.56917 153.214 10.1184C154.425 10.5397 154.553 10.6197 154.742 11.0663C155.177 12.1013 154.429 13.5964 153.308 13.9296C152.981 14.0271 152.732 14.0123 151.761 13.8371C150.12 13.5415 149.154 13.4374 147.396 13.3669C146.304 13.3231 145.987 13.3104 145.857 13.4601C145.804 13.5213 145.782 13.6097 145.75 13.7342C145.189 15.9799 142.78 22.4962 141.069 26.3933C140.74 27.1429 140.599 27.4654 140.538 27.8024C140.492 28.0569 140.492 28.3196 140.492 28.7808C140.492 29.7447 140.516 29.896 140.737 30.2826C141.07 30.8666 141.417 31.1035 141.936 31.1025C142.772 31.1008 143.821 30.3541 145.862 28.3072C147.306 26.8591 147.306 26.8591 147.613 25.8774C148.399 23.3666 149.622 21.2858 151.584 19.1224C153.5 17.009 156.213 15.3866 157.836 15.3828C159.049 15.38 160.566 15.9922 161.11 16.7046C161.519 17.2403 161.781 18.0955 161.723 18.7029C161.682 19.1237 161.699 19.182 161.861 19.182C162.287 19.182 162.734 19.4658 162.889 19.8353C163.138 20.4265 163.128 20.4865 161.554 27.9308C161.335 28.964 161.156 29.9771 161.156 30.1819C161.156 30.6461 161.333 31.1683 161.49 31.1683C162.045 31.1683 163.704 29.4864 166.059 26.5377C167.029 25.3227 167.029 25.3227 167.441 23.5924L167.441 23.5923C167.667 22.6406 168.353 19.7789 168.964 17.2331C170.962 8.91041 171.152 7.91312 171.036 6.33503C171.002 5.87049 170.948 5.35888 170.917 5.19809C170.863 4.91948 170.892 4.88908 171.53 4.55103C172.791 3.88389 175.099 3.50521 176.096 3.80194C176.573 3.94382 177.016 4.43107 177.165 4.97756C177.375 5.75209 177.109 7.64348 176.471 9.90839C176.007 11.5555 173.324 21.8467 171.754 28.0012C170.794 31.7627 169.995 34.7074 169.905 34.8121C169.818 34.9134 169.525 35.0994 169.255 35.2253C168.254 35.6921 166.943 35.4716 166.041 34.6849C165.67 34.3621 165.181 33.5077 165.181 33.1832C165.181 33.0422 164.998 33.1683 164.448 33.6864C163.406 34.6691 162.505 35.079 161.086 35.2152C160.289 35.2917 159.261 35.0839 158.634 34.7191C158.143 34.4335 157.701 33.8325 157.407 33.0487C157.29 32.738 157.182 32.4675 157.167 32.4475C157.152 32.4275 156.878 32.6468 156.557 32.9347C154.499 34.7827 151.067 35.7706 149.446 34.9818C148.677 34.6077 147.952 33.8742 147.548 33.0641C147.191 32.3466 147.191 32.3466 146.197 33.2269C144.928 34.3514 143.768 35.1196 142.87 35.4302C142.259 35.6416 142.052 35.6679 141.375 35.6199C139.4 35.4801 137.791 34.4462 136.966 32.7856C136.232 31.3079 136.154 30.0167 136.612 26.8759C136.963 24.4687 138.035 18.6824 138.611 16.0935C138.84 15.0628 138.943 14.6001 138.758 14.3927C138.608 14.2238 138.267 14.2243 137.648 14.2254C135.992 14.2281 135.262 14.1199 133.826 13.6592C132.945 13.3767 132.666 13.2396 132.368 12.944C132.042 12.6206 132 12.5231 132 12.0989C132 11.2273 132.586 10.3689 133.523 9.86785C133.825 9.70648 133.963 9.70307 135.501 9.81854C136.764 9.91336 137.444 9.91716 138.381 9.83482C140.19 9.67598 140.223 9.66691 140.302 9.30547C140.338 9.13669 140.601 8.29074 140.886 7.42568C141.473 5.63993 142.093 4.36948 142.543 4.03182ZM195.363 16.3206C196.123 15.417 197.756 14.3506 198.726 14.124C199.703 13.8957 200.48 14.1073 201.259 14.8139C202.277 15.7374 202.421 16.3949 201.853 17.5156C201.667 17.8826 201.289 18.4743 201.014 18.8303C200.731 19.1971 200.608 19.356 200.575 19.5321C200.549 19.6667 200.575 19.8114 200.622 20.0668C200.808 21.0829 201.357 22.4732 202.416 24.6113C203.523 26.845 204.057 28.2631 204.057 28.9718C204.057 30.2517 202.841 32.3001 201.124 33.9134C198.913 35.9916 196.632 36.6053 194.668 35.6504C193.499 35.0818 192.082 33.4896 191.641 32.2493C191.424 31.6362 191.448 30.8544 191.701 30.3604C191.906 29.9598 191.892 29.9678 191.123 30.6958C189.368 32.3571 187.449 33.6961 185.537 34.5937C184.063 35.2856 183.024 35.5627 181.674 35.6239C180.317 35.6855 179.665 35.5503 178.434 34.9516C177.767 34.6269 177.43 34.3773 176.752 33.7041C176.02 32.9777 175.836 32.7234 175.407 31.8449C174.722 30.4433 174.565 29.6117 174.632 27.7631C174.692 26.1298 174.938 25.0384 175.581 23.5588C176.995 20.3025 179.446 17.5347 182.085 16.2141C183.24 15.6361 184.167 15.4402 185.44 15.5053C186.767 15.5731 187.276 15.7629 187.965 16.4469C188.673 17.1488 188.939 17.8103 188.939 18.8728C188.939 19.8272 188.748 20.5751 188.245 21.5947C187.228 23.6578 185.819 24.9981 181.797 27.7312C180.532 28.5912 180.11 28.8492 180.071 29.1555C180.049 29.3311 180.153 29.5227 180.296 29.8527C180.729 30.8522 181.475 31.3023 182.701 31.3052C183.882 31.308 184.779 30.9683 186.307 29.9391C188.051 28.7641 190.572 26.4558 190.972 25.6666C191.11 25.3963 191.475 24.8243 191.784 24.3956C192.093 23.9668 192.778 22.9618 193.306 22.1622L193.307 22.1621C194.267 20.7086 194.267 20.7086 194.087 20.2132C193.658 19.0341 194.028 17.9067 195.363 16.3206ZM182.857 22.037C183.103 21.7654 183.447 21.2751 183.623 20.9475C183.864 20.499 183.936 20.2545 183.913 19.9577C183.899 19.7765 183.892 19.6786 183.845 19.6529C183.789 19.6227 183.68 19.6921 183.441 19.843C182.908 20.1803 182.475 20.6579 181.89 21.5549C181.469 22.2013 180.735 23.7396 180.811 23.8155C180.872 23.8759 182.377 22.5675 182.857 22.037ZM155.695 22.4661C155.674 22.4449 155.905 21.9143 156.209 21.2869C156.513 20.6596 156.736 20.1211 156.705 20.0902C156.593 19.9795 155.559 21.1475 154.943 22.0802C153.696 23.9683 153.222 25.0197 152.757 26.9254C152.5 27.9777 152.423 29.7399 152.619 30.1028C152.898 30.6205 154.119 30.0559 155.371 28.8295C156.668 27.5593 156.732 27.4371 157.31 25.0777C157.959 22.4283 158.033 22.0081 157.848 22.0081C157.77 22.0081 157.263 22.1197 156.72 22.2564C156.178 22.3929 155.716 22.4872 155.695 22.4661ZM199.032 30.8849C199.227 30.3302 198.846 29.0626 197.307 25.1487C196.986 24.3301 196.699 23.6376 196.671 23.6097C196.59 23.529 195.948 24.4682 195.819 24.8568C195.666 25.3168 195.136 26.121 194.226 27.2739C193.271 28.4834 193.267 28.4907 193.662 28.2878C194.027 28.1005 195.926 27.4499 195.973 27.4962C195.989 27.5125 196.203 28.1058 196.447 28.8149C197.045 30.5468 197.608 31.6555 197.889 31.6555C198.244 31.6555 198.922 31.1986 199.032 30.8849Z" fill="#3993FF"/>
</svg>
