<svg tabindex="-1" focusable="false" aria-hidden="true" viewBox="0 0 22 22" fill="none" xmlns="http://www.w3.org/2000/svg">
<path fill-rule="evenodd" clip-rule="evenodd" d="M10.7646 2.07494C10.2662 2.22265 9.78373 2.54388 9.42953 2.96393C9.13064 3.31828 2.72497 14.7942 2.27291 15.7852C1.59415 17.273 2.22461 19.048 3.68618 19.7641C4.10877 19.9712 4.10877 19.9712 11.3214 19.9925C17.7607 20.0115 18.5787 20.0004 18.9501 19.889C19.7866 19.638 20.3968 19.0721 20.7955 18.1776C20.9724 17.7808 21.0009 17.6192 21 17.0169C20.9992 16.4583 20.9651 16.2396 20.8313 15.9322C20.739 15.7204 19.1492 12.8033 17.2983 9.44972C15.001 5.28751 13.8189 3.22048 13.5736 2.93695C13.0654 2.34945 12.4543 2.04757 11.6891 2.0059C11.3401 1.98693 10.9678 2.01469 10.7646 2.07494ZM12.1031 7.47458C12.209 7.55598 12.3606 7.74668 12.4402 7.89844C12.5827 8.17007 12.5829 8.21361 12.4549 10.8075C12.3834 12.2558 12.2925 13.57 12.2527 13.7281C12.1589 14.1008 11.8724 14.3348 11.5098 14.3348C11.1489 14.3348 10.7902 14.0351 10.7365 13.6887C10.7152 13.5523 10.6462 12.4087 10.5831 11.1473C10.5199 9.88594 10.4514 8.7739 10.4309 8.6761C10.3791 8.42981 10.5153 7.94454 10.708 7.68877C11.0355 7.25379 11.6861 7.15389 12.1031 7.47458ZM12.1031 15.3259C12.7197 15.7975 12.6727 16.828 12.0185 17.1814C11.3093 17.5645 10.4731 17.0507 10.4725 16.2316C10.4717 15.3711 11.4512 14.8271 12.1031 15.3259Z" fill="currentColor"/>
</svg>
